<?xml version="1.0" standalone="no"?>
<!DOCTYPE svg PUBLIC "-//W3C//DTD SVG 20010904//EN"
 "http://www.w3.org/TR/2001/REC-SVG-20010904/DTD/svg10.dtd">
<svg version="1.0" xmlns="http://www.w3.org/2000/svg"
 width="78.000000pt" height="78.000000pt" viewBox="0 0 78.000000 78.000000"
 preserveAspectRatio="xMidYMid meet">
<metadata>
Created by potrace 1.14, written by Peter Selinger 2001-2017
</metadata>
<g transform="translate(0.000000,78.000000) scale(0.100000,-0.100000)"
fill="#000000" stroke="none">
<path d="M514 660 c-12 -4 -24 -15 -27 -23 -6 -17 2 -56 12 -58 55 -11 87 14
71 57 -8 20 -6 22 13 19 76 -15 102 -71 55 -121 -21 -24 -54 -37 -192 -80
-103 -32 -143 -61 -152 -110 -17 -89 62 -143 155 -104 53 21 54 91 2 98 -12 2
-29 -2 -37 -8 -20 -17 -18 -56 4 -65 16 -6 16 -7 0 -16 -41 -23 -107 27 -93
71 7 23 26 35 102 61 55 19 56 19 83 -1 16 -11 33 -35 39 -53 47 -143 -178
-238 -337 -142 -74 45 -92 157 -36 216 33 35 60 44 94 31 30 -11 50 -5 50 14
0 15 -8 17 -50 15 -39 -3 -65 32 -65 86 0 37 5 49 28 69 28 24 71 31 95 15 10
-6 10 -10 -3 -21 -36 -30 -7 -88 40 -76 61 15 34 96 -38 114 -138 35 -236 -78
-146 -167 l28 -29 -48 -29 c-61 -39 -85 -86 -79 -159 4 -41 12 -63 35 -91 88
-109 305 -125 405 -30 76 72 83 173 18 238 l-28 28 37 12 c62 19 117 57 133
89 22 45 8 108 -29 137 -30 24 -97 30 -139 13z"/>
</g>
</svg>
